<?xml version="1.0" encoding="UTF-8"?>
<svg xmlns="http://www.w3.org/2000/svg" xmlns:xlink="http://www.w3.org/1999/xlink" width="27px" height="26px" viewBox="0 0 26 26" version="1.1">
<g id="surface1">
<path style=" stroke:none;fill-rule:nonzero;fill:rgb(20%,20%,20.784314%);fill-opacity:1;" d="M 11.378906 8.898438 L 9.007812 9.832031 C 8.941406 9.722656 8.851562 9.621094 8.75 9.539062 L 9.964844 6.78125 C 10.121094 6.816406 10.28125 6.816406 10.4375 6.777344 Z M 11.378906 8.898438 "/>
<path style=" stroke:none;fill-rule:nonzero;fill:rgb(20%,20%,20.784314%);fill-opacity:1;" d="M 11.542969 9.269531 L 12.375 11.136719 C 12.257812 11.230469 12.160156 11.34375 12.09375 11.480469 L 9.148438 10.503906 C 9.164062 10.40625 9.160156 10.3125 9.144531 10.214844 Z M 11.542969 9.269531 "/>
<path style=" stroke:none;fill-rule:nonzero;fill:rgb(20%,20%,20.784314%);fill-opacity:1;" d="M 11.746094 8.753906 L 10.789062 6.605469 C 10.933594 6.496094 11.046875 6.355469 11.121094 6.1875 C 11.121094 6.171875 11.125 6.160156 11.132812 6.148438 L 15.550781 6.996094 C 15.542969 7.078125 15.546875 7.164062 15.5625 7.246094 Z M 11.746094 8.753906 "/>
<path style=" stroke:none;fill-rule:nonzero;fill:rgb(20%,20%,20.784314%);fill-opacity:1;" d="M 15.695312 7.625 C 15.722656 7.675781 15.757812 7.71875 15.796875 7.761719 L 13.402344 11.046875 C 13.390625 11.035156 13.378906 11.027344 13.363281 11.023438 C 13.164062 10.929688 12.9375 10.910156 12.726562 10.96875 L 11.90625 9.121094 Z M 15.695312 7.625 "/>
<path style=" stroke:none;fill-rule:nonzero;fill:rgb(20%,20%,20.784314%);fill-opacity:1;" d="M 20.929688 14.015625 L 20.097656 11.863281 C 19.941406 11.464844 19.867188 11.039062 19.867188 10.605469 L 19.867188 10.46875 C 19.867188 9.152344 19.535156 7.855469 18.914062 6.710938 C 18.285156 5.5625 17.386719 4.609375 16.300781 3.9375 L 15.765625 3.613281 C 14.667969 2.933594 13.414062 2.570312 12.136719 2.5625 C 10.863281 2.554688 9.609375 2.898438 8.5 3.5625 C 7.390625 4.222656 6.472656 5.183594 5.832031 6.339844 C 5.191406 7.492188 4.851562 8.808594 4.851562 10.144531 L 4.851562 10.34375 C 4.851562 11.796875 5.199219 13.226562 5.851562 14.511719 C 6.136719 15.074219 6.480469 15.601562 6.878906 16.089844 C 7.191406 16.464844 7.367188 16.949219 7.367188 17.449219 L 7.367188 21.707031 C 7.367188 22.121094 7.523438 22.519531 7.804688 22.8125 C 8.085938 23.105469 8.464844 23.269531 8.859375 23.269531 L 13.222656 23.269531 C 13.417969 23.269531 13.613281 23.230469 13.792969 23.148438 C 13.976562 23.070312 14.140625 22.957031 14.277344 22.808594 C 14.414062 22.667969 14.527344 22.492188 14.601562 22.304688 C 14.675781 22.117188 14.714844 21.910156 14.710938 21.707031 L 14.710938 20.332031 C 14.710938 20.25 14.730469 20.167969 14.761719 20.089844 C 14.796875 20.015625 14.847656 19.945312 14.90625 19.890625 C 14.96875 19.835938 15.039062 19.796875 15.117188 19.777344 C 15.199219 19.753906 15.277344 19.75 15.359375 19.761719 L 17.542969 20.140625 C 17.808594 20.183594 18.074219 20.164062 18.332031 20.082031 C 18.585938 20 18.824219 19.867188 19.023438 19.683594 C 19.222656 19.5 19.386719 19.273438 19.492188 19.019531 C 19.605469 18.765625 19.660156 18.492188 19.664062 18.21875 L 19.664062 15.328125 C 19.664062 15.21875 19.699219 15.113281 19.765625 15.03125 C 19.832031 14.945312 19.925781 14.886719 20.027344 14.871094 L 20.539062 14.769531 C 20.617188 14.753906 20.6875 14.722656 20.753906 14.671875 C 20.8125 14.625 20.871094 14.5625 20.90625 14.492188 C 20.945312 14.417969 20.96875 14.339844 20.972656 14.257812 C 20.976562 14.175781 20.960938 14.09375 20.929688 14.015625 Z M 17.460938 7.492188 C 17.355469 7.746094 17.15625 7.945312 16.910156 8.046875 C 16.660156 8.148438 16.386719 8.140625 16.140625 8.03125 C 16.128906 8.027344 16.117188 8.015625 16.105469 8.011719 L 13.710938 11.292969 C 13.820312 11.421875 13.894531 11.582031 13.933594 11.75 C 13.96875 11.917969 13.964844 12.09375 13.921875 12.265625 C 13.878906 12.429688 13.792969 12.585938 13.675781 12.707031 C 13.5625 12.832031 13.417969 12.925781 13.261719 12.976562 C 13.105469 13.027344 12.933594 13.042969 12.773438 13.007812 C 12.609375 12.976562 12.457031 12.898438 12.328125 12.789062 C 12.199219 12.675781 12.101562 12.535156 12.039062 12.375 C 11.976562 12.210938 11.953125 12.039062 11.972656 11.863281 L 9.03125 10.890625 C 8.910156 11.128906 8.707031 11.300781 8.460938 11.382812 C 8.214844 11.46875 7.949219 11.445312 7.71875 11.324219 C 7.488281 11.207031 7.3125 10.996094 7.222656 10.746094 C 7.136719 10.492188 7.144531 10.214844 7.25 9.96875 C 7.34375 9.742188 7.511719 9.5625 7.722656 9.453125 C 7.929688 9.34375 8.171875 9.316406 8.398438 9.371094 L 9.613281 6.609375 C 9.480469 6.503906 9.367188 6.363281 9.296875 6.203125 C 9.226562 6.039062 9.195312 5.863281 9.207031 5.683594 C 9.21875 5.507812 9.277344 5.335938 9.371094 5.1875 C 9.464844 5.035156 9.59375 4.917969 9.742188 4.832031 C 9.894531 4.75 10.0625 4.714844 10.234375 4.714844 C 10.40625 4.722656 10.570312 4.773438 10.714844 4.867188 C 10.859375 4.957031 10.984375 5.085938 11.070312 5.238281 C 11.152344 5.394531 11.199219 5.570312 11.203125 5.746094 L 15.660156 6.601562 C 15.777344 6.355469 15.980469 6.167969 16.226562 6.074219 C 16.472656 5.984375 16.742188 6 16.980469 6.121094 C 17.214844 6.238281 17.402344 6.445312 17.492188 6.703125 C 17.578125 6.960938 17.570312 7.242188 17.460938 7.492188 Z M 17.460938 7.492188 "/>
</g>
</svg>
