<?xml version="1.0" encoding="UTF-8"?>
<svg xmlns="http://www.w3.org/2000/svg" xmlns:xlink="http://www.w3.org/1999/xlink" width="33px" height="32px" viewBox="0 0 32 32" version="1.1">
<g id="surface1">
<path style=" stroke:none;fill-rule:nonzero;fill:rgb(200,200,200);fill-opacity:1;" d="M 13.941406 10.953125 L 10.933594 12.101562 C 10.847656 11.964844 10.734375 11.839844 10.605469 11.742188 L 12.148438 8.34375 C 12.347656 8.390625 12.550781 8.390625 12.746094 8.339844 Z M 13.941406 10.953125 "/>
<path style=" stroke:none;fill-rule:nonzero;fill:rgb(200,200,200);fill-opacity:1;" d="M 14.152344 11.410156 L 15.207031 13.707031 C 15.058594 13.820312 14.933594 13.960938 14.847656 14.128906 L 11.113281 12.929688 C 11.128906 12.808594 11.125 12.691406 11.105469 12.574219 Z M 14.152344 11.410156 "/>
<path style=" stroke:none;fill-rule:nonzero;fill:rgb(200,200,200);fill-opacity:1;" d="M 14.40625 10.773438 L 13.195312 8.128906 C 13.375 7.996094 13.519531 7.820312 13.613281 7.613281 C 13.613281 7.597656 13.621094 7.582031 13.628906 7.566406 L 19.238281 8.609375 C 19.226562 8.710938 19.230469 8.816406 19.25 8.917969 Z M 14.40625 10.773438 "/>
<path style=" stroke:none;fill-rule:nonzero;fill:rgb(200,200,200);fill-opacity:1;" d="M 19.421875 9.382812 C 19.457031 9.445312 19.5 9.5 19.550781 9.554688 L 16.511719 13.59375 C 16.496094 13.582031 16.480469 13.574219 16.460938 13.566406 C 16.207031 13.453125 15.921875 13.429688 15.652344 13.5 L 14.613281 11.226562 Z M 19.421875 9.382812 "/>
<path style=" stroke:none;fill-rule:nonzero;fill:rgb(200,200,200);fill-opacity:1;" d="M 26.066406 17.25 L 25.007812 14.601562 C 24.8125 14.109375 24.714844 13.585938 24.714844 13.054688 L 24.714844 12.886719 C 24.714844 11.265625 24.296875 9.667969 23.503906 8.257812 C 22.707031 6.847656 21.566406 5.671875 20.1875 4.847656 L 19.511719 4.445312 C 18.117188 3.609375 16.527344 3.164062 14.90625 3.152344 C 13.289062 3.144531 11.695312 3.566406 10.289062 4.382812 C 8.882812 5.199219 7.714844 6.378906 6.902344 7.800781 C 6.089844 9.222656 5.660156 10.839844 5.660156 12.484375 L 5.660156 12.730469 C 5.660156 14.519531 6.097656 16.28125 6.925781 17.859375 C 7.289062 18.554688 7.726562 19.203125 8.230469 19.800781 C 8.628906 20.265625 8.851562 20.859375 8.851562 21.476562 L 8.851562 26.714844 C 8.851562 27.226562 9.050781 27.714844 9.40625 28.078125 C 9.761719 28.4375 10.246094 28.640625 10.746094 28.640625 L 16.28125 28.640625 C 16.53125 28.640625 16.777344 28.589844 17.007812 28.492188 C 17.238281 28.394531 17.445312 28.253906 17.621094 28.074219 C 17.796875 27.898438 17.9375 27.683594 18.03125 27.453125 C 18.125 27.21875 18.175781 26.96875 18.171875 26.714844 L 18.171875 25.023438 C 18.171875 24.921875 18.195312 24.820312 18.238281 24.726562 C 18.28125 24.632812 18.34375 24.546875 18.421875 24.480469 C 18.5 24.414062 18.589844 24.367188 18.6875 24.339844 C 18.789062 24.3125 18.890625 24.308594 18.992188 24.324219 L 21.765625 24.789062 C 22.101562 24.839844 22.441406 24.816406 22.765625 24.714844 C 23.089844 24.617188 23.390625 24.453125 23.644531 24.226562 C 23.898438 24 24.105469 23.722656 24.242188 23.410156 C 24.382812 23.097656 24.453125 22.761719 24.457031 22.421875 L 24.457031 18.867188 C 24.457031 18.730469 24.503906 18.601562 24.585938 18.5 C 24.671875 18.394531 24.789062 18.324219 24.917969 18.300781 L 25.566406 18.175781 C 25.667969 18.160156 25.757812 18.121094 25.839844 18.058594 C 25.917969 18 25.988281 17.921875 26.035156 17.835938 C 26.085938 17.746094 26.113281 17.648438 26.117188 17.546875 C 26.125 17.445312 26.105469 17.34375 26.066406 17.25 Z M 21.660156 9.222656 C 21.527344 9.535156 21.273438 9.78125 20.960938 9.90625 C 20.644531 10.027344 20.296875 10.019531 19.988281 9.882812 C 19.972656 9.878906 19.957031 9.863281 19.941406 9.859375 L 16.902344 13.898438 C 17.039062 14.058594 17.136719 14.253906 17.183594 14.460938 C 17.230469 14.667969 17.226562 14.886719 17.171875 15.09375 C 17.113281 15.296875 17.007812 15.488281 16.859375 15.640625 C 16.714844 15.792969 16.53125 15.910156 16.332031 15.972656 C 16.132812 16.035156 15.917969 16.050781 15.710938 16.007812 C 15.503906 15.96875 15.308594 15.875 15.148438 15.738281 C 14.984375 15.601562 14.859375 15.425781 14.78125 15.230469 C 14.699219 15.03125 14.671875 14.816406 14.695312 14.601562 L 10.964844 13.402344 C 10.808594 13.695312 10.550781 13.910156 10.238281 14.011719 C 9.925781 14.113281 9.589844 14.085938 9.296875 13.9375 C 9.003906 13.792969 8.78125 13.535156 8.667969 13.226562 C 8.558594 12.914062 8.570312 12.570312 8.703125 12.269531 C 8.820312 11.992188 9.035156 11.769531 9.300781 11.632812 C 9.566406 11.5 9.871094 11.464844 10.160156 11.535156 L 11.703125 8.132812 C 11.53125 8.003906 11.390625 7.832031 11.300781 7.632812 C 11.210938 7.433594 11.171875 7.214844 11.1875 6.996094 C 11.203125 6.777344 11.273438 6.566406 11.394531 6.382812 C 11.511719 6.199219 11.675781 6.050781 11.867188 5.949219 C 12.058594 5.847656 12.273438 5.800781 12.488281 5.804688 C 12.707031 5.8125 12.917969 5.875 13.101562 5.988281 C 13.285156 6.101562 13.441406 6.257812 13.550781 6.449219 C 13.65625 6.640625 13.714844 6.855469 13.71875 7.074219 L 19.375 8.125 C 19.523438 7.820312 19.78125 7.589844 20.09375 7.476562 C 20.40625 7.367188 20.75 7.386719 21.050781 7.53125 C 21.351562 7.675781 21.585938 7.933594 21.699219 8.25 C 21.8125 8.566406 21.800781 8.914062 21.664062 9.222656 Z M 21.660156 9.222656 "/>
</g>
</svg>
